<?xml version="1.0" encoding="UTF-8" standalone="no"?>
<!-- Generated by graphviz version 2.26.0 (20091210.2329)
 -->

<!-- Title: G Pages: 1 -->

<svg
   xmlns:dc="http://purl.org/dc/elements/1.1/"
   xmlns:cc="http://creativecommons.org/ns#"
   xmlns:rdf="http://www.w3.org/1999/02/22-rdf-syntax-ns#"
   xmlns:svg="http://www.w3.org/2000/svg"
   xmlns="http://www.w3.org/2000/svg"
   xmlns:sodipodi="http://sodipodi.sourceforge.net/DTD/sodipodi-0.dtd"
   xmlns:inkscape="http://www.inkscape.org/namespaces/inkscape"
   width="278pt"
   height="268pt"
   viewBox="0.00 0.00 278.00 268.00"
   id="svg2"
   version="1.1"
   inkscape:version="0.48.2 r9819"
   sodipodi:docname="swat-logo.svg">
  <metadata
     id="metadata160">
    <rdf:RDF>
      <cc:Work
         rdf:about="">
        <dc:format>image/svg+xml</dc:format>
        <dc:type
           rdf:resource="http://purl.org/dc/dcmitype/StillImage" />
      </cc:Work>
    </rdf:RDF>
  </metadata>
  <defs
     id="defs158" />
  <sodipodi:namedview
     pagecolor="#ffffff"
     bordercolor="#666666"
     borderopacity="1"
     objecttolerance="10"
     gridtolerance="10"
     guidetolerance="10"
     inkscape:pageopacity="0"
     inkscape:pageshadow="2"
     inkscape:window-width="1159"
     inkscape:window-height="878"
     id="namedview156"
     showgrid="false"
     inkscape:zoom="0.70447761"
     inkscape:cx="121.22881"
     inkscape:cy="181.69491"
     inkscape:window-x="456"
     inkscape:window-y="109"
     inkscape:window-maximized="0"
     inkscape:current-layer="svg2"
     showborder="false" />
  <g
     class="node"
     id="node1"
     transform="translate(4,264)"
     style="fill:#0000ff;fill-opacity:1">
    <title
       id="title10">0</title>
    <polygon
       style="fill:#0000ff;stroke:#000000;fill-opacity:1"
       id="polygon12"
       points="162,-259 162,-223 108,-223 108,-223 108,-259 " />
    <text
       style="font-size:14px;text-anchor:middle;font-family:'Times Roman,serif';fill:#0000ff;fill-opacity:1"
       id="text14"
       font-size="14.00"
       y="-237.89999"
       x="135" />
  </g>
  <g
     class="node"
     id="node2"
     transform="translate(4,264)"
     style="fill:#ff0000;fill-opacity:1">
    <title
       id="title17">1</title>
    <polygon
       style="fill:#ff0000;stroke:#000000;fill-opacity:1"
       id="polygon19"
       points="126,-185 126,-149 72,-149 72,-149 72,-185 " />
    <text
       style="font-size:14px;text-anchor:middle;font-family:'Times Roman,serif';fill:#ff0000;fill-opacity:1"
       id="text21"
       font-size="14.00"
       y="-163.89999"
       x="99" />
  </g>
  <g
     class="edge"
     id="edge2"
     transform="translate(4,264)">
    <title
       id="title24">0-&gt;1</title>
    <path
       style="fill:none;stroke:#000000"
       inkscape:connector-curvature="0"
       id="path26"
       d="m 126.101,-222.708 c -4.185,8.603 -9.261,19.037 -13.883,28.538" />
    <polygon
       style="fill:#000000;stroke:#000000"
       id="polygon28"
       points="109.024,-195.605 115.319,-192.543 115.319,-192.543 107.797,-185.082 " />
  </g>
  <g
     class="node"
     id="node5"
     transform="translate(4,264)"
     style="fill:#00ff00;fill-opacity:1">
    <title
       id="title31">4</title>
    <polygon
       style="fill:#00ff00;stroke:#000000;fill-opacity:1"
       id="polygon33"
       points="198,-185 198,-149 144,-149 144,-149 144,-185 " />
    <text
       style="font-size:14px;text-anchor:middle;font-family:'Times Roman,serif';fill:#00ff00;fill-opacity:1"
       id="text35"
       font-size="14.00"
       y="-163.89999"
       x="171" />
  </g>
  <g
     class="edge"
     id="edge12"
     transform="translate(4,264)">
    <title
       id="title38">0-&gt;4</title>
    <path
       style="fill:none;stroke:#000000"
       inkscape:connector-curvature="0"
       id="path40"
       d="m 143.899,-222.708 c 4.185,8.603 9.261,19.037 13.883,28.538" />
    <polygon
       style="fill:#000000;stroke:#000000"
       id="polygon42"
       points="154.681,-192.543 160.976,-195.605 160.976,-195.605 162.203,-185.082 " />
  </g>
  <g
     class="node"
     id="node3"
     transform="translate(4,264)"
     style="fill:#ff0000;fill-opacity:1">
    <title
       id="title45">2</title>
    <polygon
       style="fill:#ff0000;stroke:#000000;fill-opacity:1"
       id="polygon47"
       points="54,-111 54,-75 0,-75 0,-75 0,-111 " />
    <text
       style="font-size:14px;text-anchor:middle;font-family:'Times Roman,serif';fill:#ff0000;fill-opacity:1"
       id="text49"
       font-size="14.00"
       y="-89.900002"
       x="27" />
  </g>
  <g
     class="edge"
     id="edge4"
     transform="translate(4,264)">
    <title
       id="title52">1-&gt;2</title>
    <path
       style="fill:none;stroke:#000000"
       inkscape:connector-curvature="0"
       id="path54"
       d="m 81.2022,-148.708 c -8.8934,9.141 -19.798,20.348 -29.4887,30.308" />
    <polygon
       style="fill:#000000;stroke:#000000"
       id="polygon56"
       points="49.0581,-120.69 54.0752,-115.808 54.0752,-115.808 44.593,-111.082 " />
  </g>
  <g
     class="node"
     id="node4"
     transform="translate(4,264)"
     style="fill:#ff0000;fill-opacity:1">
    <title
       id="title59">3</title>
    <polygon
       style="fill:#ff0000;stroke:#000000;fill-opacity:1"
       id="polygon61"
       points="126,-111 126,-75 72,-75 72,-75 72,-111 " />
    <text
       style="font-size:14px;text-anchor:middle;font-family:'Times Roman,serif';fill:#ff0000;fill-opacity:1"
       id="text63"
       font-size="14.00"
       y="-89.900002"
       x="99" />
  </g>
  <g
     class="edge"
     id="edge6"
     transform="translate(4,264)">
    <title
       id="title66">1-&gt;3</title>
    <path
       style="fill:none;stroke:#000000"
       inkscape:connector-curvature="0"
       id="path68"
       d="m 99,-148.708 c 0,8.244 0,18.17 0,27.346" />
    <polygon
       style="fill:#000000;stroke:#000000"
       id="polygon70"
       points="95.5001,-121.082 102.5,-121.082 102.5,-121.082 99,-111.082 " />
  </g>
  <g
     class="node"
     id="node10"
     transform="translate(4,264)"
     style="fill:#ffff00;fill-opacity:1">
    <title
       id="title73">9</title>
    <polygon
       style="fill:#ffff00;stroke:#000000;fill-opacity:1"
       id="polygon75"
       points="54,-37 54,-1 0,-1 0,-1 0,-37 " />
    <text
       style="font-size:14px;text-anchor:middle;font-family:'Times Roman,serif';fill:#ffff00;fill-opacity:1"
       id="text77"
       font-size="14.00"
       y="-15.9"
       x="27" />
  </g>
  <g
     class="edge"
     id="edge8"
     transform="translate(4,264)">
    <title
       id="title80">3-&gt;9</title>
    <path
       style="fill:none;stroke:#000000"
       inkscape:connector-curvature="0"
       id="path82"
       d="m 81.2022,-74.7079 c -8.8934,9.1405 -19.798,20.348 -29.4887,30.3079" />
    <polygon
       style="fill:#000000;stroke:#000000"
       id="polygon84"
       points="49.0581,-46.6898 54.0752,-41.8083 54.0752,-41.8083 44.593,-37.0817 " />
  </g>
  <g
     class="node"
     id="node11"
     transform="translate(4,264)"
     style="fill:#ffff00;fill-opacity:1">
    <title
       id="title87">10</title>
    <polygon
       style="fill:#ffff00;stroke:#000000;fill-opacity:1"
       id="polygon89"
       points="126,-37 126,-1 72,-1 72,-1 72,-37 " />
    <text
       style="font-size:14px;text-anchor:middle;font-family:'Times Roman,serif';fill:#ffff00;fill-opacity:1"
       id="text91"
       font-size="14.00"
       y="-15.9"
       x="99" />
  </g>
  <g
     class="edge"
     id="edge10"
     transform="translate(4,264)">
    <title
       id="title94">3-&gt;10</title>
    <path
       style="fill:none;stroke:#000000"
       inkscape:connector-curvature="0"
       id="path96"
       d="m 99,-74.7079 c 0,8.2444 0,18.1703 0,27.3457" />
    <polygon
       style="fill:#000000;stroke:#000000"
       id="polygon98"
       points="95.5001,-47.0818 102.5,-47.0817 102.5,-47.0817 99,-37.0817 " />
  </g>
  <g
     class="node"
     id="node6"
     transform="translate(4,264)"
     style="fill:#00ff00;fill-opacity:1">
    <title
       id="title101">5</title>
    <polygon
       style="fill:#00ff00;stroke:#000000;fill-opacity:1"
       id="polygon103"
       points="198,-111 198,-75 144,-75 144,-75 144,-111 " />
    <text
       style="font-size:14px;text-anchor:middle;font-family:'Times Roman,serif';fill:#00ff00;fill-opacity:1"
       id="text105"
       font-size="14.00"
       y="-89.900002"
       x="171" />
  </g>
  <g
     class="edge"
     id="edge14"
     transform="translate(4,264)">
    <title
       id="title108">4-&gt;5</title>
    <path
       style="fill:none;stroke:#000000"
       inkscape:connector-curvature="0"
       id="path110"
       d="m 171,-148.708 c 0,8.244 0,18.17 0,27.346" />
    <polygon
       style="fill:#000000;stroke:#000000"
       id="polygon112"
       points="167.5,-121.082 174.5,-121.082 174.5,-121.082 171,-111.082 " />
  </g>
  <g
     class="node"
     id="node7"
     transform="translate(4,264)"
     style="fill:#00ff00;fill-opacity:1">
    <title
       id="title115">6</title>
    <polygon
       style="fill:#00ff00;stroke:#000000;fill-opacity:1"
       id="polygon117"
       points="270,-111 270,-75 216,-75 216,-75 216,-111 " />
    <text
       style="font-size:14px;text-anchor:middle;font-family:'Times Roman,serif';fill:#00ff00;fill-opacity:1"
       id="text119"
       font-size="14.00"
       y="-89.900002"
       x="243" />
  </g>
  <g
     class="edge"
     id="edge16"
     transform="translate(4,264)">
    <title
       id="title122">4-&gt;6</title>
    <path
       style="fill:none;stroke:#000000"
       inkscape:connector-curvature="0"
       id="path124"
       d="m 188.798,-148.708 c 8.893,9.141 19.798,20.348 29.488,30.308" />
    <polygon
       style="fill:#000000;stroke:#000000"
       id="polygon126"
       points="215.925,-115.808 220.942,-120.69 220.942,-120.69 225.407,-111.082 " />
  </g>
  <g
     class="node"
     id="node8"
     transform="translate(4,264)"
     style="fill:#00ff00;fill-opacity:1">
    <title
       id="title129">7</title>
    <polygon
       style="fill:#00ff00;stroke:#000000;fill-opacity:1"
       id="polygon131"
       points="198,-37 198,-1 144,-1 144,-1 144,-37 " />
    <text
       style="font-size:14px;text-anchor:middle;font-family:'Times Roman,serif';fill:#00ff00;fill-opacity:1"
       id="text133"
       font-size="14.00"
       y="-15.9"
       x="171" />
  </g>
  <g
     class="edge"
     id="edge18"
     transform="translate(4,264)">
    <title
       id="title136">5-&gt;7</title>
    <path
       style="fill:none;stroke:#000000"
       inkscape:connector-curvature="0"
       id="path138"
       d="m 171,-74.7079 c 0,8.2444 0,18.1703 0,27.3457" />
    <polygon
       style="fill:#000000;stroke:#000000"
       id="polygon140"
       points="167.5,-47.0818 174.5,-47.0817 174.5,-47.0817 171,-37.0817 " />
  </g>
  <g
     class="node"
     id="node9"
     transform="translate(4,264)"
     style="fill:#00ff00;fill-opacity:1">
    <title
       id="title143">8</title>
    <polygon
       style="fill:#00ff00;stroke:#000000;fill-opacity:1"
       id="polygon145"
       points="270,-37 270,-1 216,-1 216,-1 216,-37 " />
    <text
       style="font-size:14px;text-anchor:middle;font-family:'Times Roman,serif';fill:#00ff00;fill-opacity:1"
       id="text147"
       font-size="14.00"
       y="-15.9"
       x="243" />
  </g>
  <g
     class="edge"
     id="edge20"
     transform="translate(4,264)">
    <title
       id="title150">6-&gt;8</title>
    <path
       style="fill:none;stroke:#000000"
       inkscape:connector-curvature="0"
       id="path152"
       d="m 243,-74.7079 c 0,8.2444 0,18.1703 0,27.3457" />
    <polygon
       style="fill:#000000;stroke:#000000"
       id="polygon154"
       points="239.5,-47.0818 246.5,-47.0817 246.5,-47.0817 243,-37.0817 " />
  </g>
</svg>
