<?xml version="1.0" encoding="UTF-8" standalone="no"?>
<!-- Generated by graphviz version 2.26.0 (20091210.2329)
 -->

<!-- Title: G Pages: 1 -->

<svg
   xmlns:dc="http://purl.org/dc/elements/1.1/"
   xmlns:cc="http://creativecommons.org/ns#"
   xmlns:rdf="http://www.w3.org/1999/02/22-rdf-syntax-ns#"
   xmlns:svg="http://www.w3.org/2000/svg"
   xmlns="http://www.w3.org/2000/svg"
   xmlns:sodipodi="http://sodipodi.sourceforge.net/DTD/sodipodi-0.dtd"
   xmlns:inkscape="http://www.inkscape.org/namespaces/inkscape"
   width="338.75"
   height="439.51181"
   viewBox="0 0 271 351.60945"
   id="svg2"
   version="1.1"
   inkscape:version="0.48.2 r9819"
   sodipodi:docname="swat-logo-lg.svg">
  <metadata
     id="metadata160">
    <rdf:RDF>
      <cc:Work
         rdf:about="">
        <dc:format>image/svg+xml</dc:format>
        <dc:type
           rdf:resource="http://purl.org/dc/dcmitype/StillImage" />
      </cc:Work>
    </rdf:RDF>
  </metadata>
  <defs
     id="defs158" />
  <sodipodi:namedview
     pagecolor="#ffffff"
     bordercolor="#666666"
     borderopacity="1"
     objecttolerance="10"
     gridtolerance="10"
     guidetolerance="10"
     inkscape:pageopacity="0"
     inkscape:pageshadow="2"
     inkscape:window-width="1139"
     inkscape:window-height="812"
     id="namedview156"
     showgrid="false"
     inkscape:zoom="0.49814089"
     inkscape:cx="118.13021"
     inkscape:cy="215.61574"
     inkscape:window-x="85"
     inkscape:window-y="61"
     inkscape:window-maximized="0"
     inkscape:current-layer="svg2"
     showborder="true"
     fit-margin-top="0"
     fit-margin-left="0"
     fit-margin-right="0"
     fit-margin-bottom="0" />
  <g
     id="g3841"
     transform="translate(-3.5,-4.5)">
    <g
       style="fill:#0000ff;fill-opacity:1"
       transform="translate(4,264)"
       id="node1"
       class="node">
      <title
         id="title10">0</title>
      <polygon
         points="108,-223 108,-223 108,-259 162,-259 162,-223 "
         id="polygon12"
         style="fill:#0000ff;fill-opacity:1;stroke:#000000" />
      <text
         x="135"
         y="-237.89999"
         font-size="14.00"
         id="text14"
         style="font-size:14px;text-anchor:middle;fill:#0000ff;fill-opacity:1;font-family:'Times Roman,serif'" />
    </g>
    <g
       style="fill:#ff0000;fill-opacity:1"
       transform="translate(4,264)"
       id="node2"
       class="node">
      <title
         id="title17">1</title>
      <polygon
         points="72,-149 72,-149 72,-185 126,-185 126,-149 "
         id="polygon19"
         style="fill:#ff0000;fill-opacity:1;stroke:#000000" />
      <text
         x="99"
         y="-163.89999"
         font-size="14.00"
         id="text21"
         style="font-size:14px;text-anchor:middle;fill:#ff0000;fill-opacity:1;font-family:'Times Roman,serif'" />
    </g>
    <g
       transform="translate(4,264)"
       id="edge2"
       class="edge">
      <title
         id="title24">0-&gt;1</title>
      <path
         d="m 126.101,-222.708 c -4.185,8.603 -9.261,19.037 -13.883,28.538"
         id="path26"
         inkscape:connector-curvature="0"
         style="fill:none;stroke:#000000" />
      <polygon
         points="109.024,-195.605 115.319,-192.543 115.319,-192.543 107.797,-185.082 "
         id="polygon28"
         style="fill:#000000;stroke:#000000" />
    </g>
    <g
       style="fill:#00ff00;fill-opacity:1"
       transform="translate(4,264)"
       id="node5"
       class="node">
      <title
         id="title31">4</title>
      <polygon
         points="144,-149 144,-149 144,-185 198,-185 198,-149 "
         id="polygon33"
         style="fill:#00ff00;fill-opacity:1;stroke:#000000" />
      <text
         x="171"
         y="-163.89999"
         font-size="14.00"
         id="text35"
         style="font-size:14px;text-anchor:middle;fill:#00ff00;fill-opacity:1;font-family:'Times Roman,serif'" />
    </g>
    <g
       transform="translate(4,264)"
       id="edge12"
       class="edge">
      <title
         id="title38">0-&gt;4</title>
      <path
         d="m 143.899,-222.708 c 4.185,8.603 9.261,19.037 13.883,28.538"
         id="path40"
         inkscape:connector-curvature="0"
         style="fill:none;stroke:#000000" />
      <polygon
         points="154.681,-192.543 160.976,-195.605 160.976,-195.605 162.203,-185.082 "
         id="polygon42"
         style="fill:#000000;stroke:#000000" />
    </g>
    <g
       style="fill:#ff0000;fill-opacity:1"
       transform="translate(4,264)"
       id="node3"
       class="node">
      <title
         id="title45">2</title>
      <polygon
         points="0,-75 0,-75 0,-111 54,-111 54,-75 "
         id="polygon47"
         style="fill:#ff0000;fill-opacity:1;stroke:#000000" />
      <text
         x="27"
         y="-89.900002"
         font-size="14.00"
         id="text49"
         style="font-size:14px;text-anchor:middle;fill:#ff0000;fill-opacity:1;font-family:'Times Roman,serif'" />
    </g>
    <g
       transform="translate(4,264)"
       id="edge4"
       class="edge">
      <title
         id="title52">1-&gt;2</title>
      <path
         d="m 81.2022,-148.708 c -8.8934,9.141 -19.798,20.348 -29.4887,30.308"
         id="path54"
         inkscape:connector-curvature="0"
         style="fill:none;stroke:#000000" />
      <polygon
         points="49.0581,-120.69 54.0752,-115.808 54.0752,-115.808 44.593,-111.082 "
         id="polygon56"
         style="fill:#000000;stroke:#000000" />
    </g>
    <g
       style="fill:#ff0000;fill-opacity:1"
       transform="translate(4,264)"
       id="node4"
       class="node">
      <title
         id="title59">3</title>
      <polygon
         points="72,-75 72,-75 72,-111 126,-111 126,-75 "
         id="polygon61"
         style="fill:#ff0000;fill-opacity:1;stroke:#000000" />
      <text
         x="99"
         y="-89.900002"
         font-size="14.00"
         id="text63"
         style="font-size:14px;text-anchor:middle;fill:#ff0000;fill-opacity:1;font-family:'Times Roman,serif'" />
    </g>
    <g
       transform="translate(4,264)"
       id="edge6"
       class="edge">
      <title
         id="title66">1-&gt;3</title>
      <path
         d="m 99,-148.708 c 0,8.244 0,18.17 0,27.346"
         id="path68"
         inkscape:connector-curvature="0"
         style="fill:none;stroke:#000000" />
      <polygon
         points="95.5001,-121.082 102.5,-121.082 102.5,-121.082 99,-111.082 "
         id="polygon70"
         style="fill:#000000;stroke:#000000" />
    </g>
    <g
       style="fill:#ffff00;fill-opacity:1"
       transform="translate(4,264)"
       id="node10"
       class="node">
      <title
         id="title73">9</title>
      <polygon
         points="0,-1 0,-1 0,-37 54,-37 54,-1 "
         id="polygon75"
         style="fill:#ffff00;fill-opacity:1;stroke:#000000" />
      <text
         x="27"
         y="-15.9"
         font-size="14.00"
         id="text77"
         style="font-size:14px;text-anchor:middle;fill:#ffff00;fill-opacity:1;font-family:'Times Roman,serif'" />
    </g>
    <g
       transform="translate(4,264)"
       id="edge8"
       class="edge">
      <title
         id="title80">3-&gt;9</title>
      <path
         d="m 81.2022,-74.7079 c -8.8934,9.1405 -19.798,20.348 -29.4887,30.3079"
         id="path82"
         inkscape:connector-curvature="0"
         style="fill:none;stroke:#000000" />
      <polygon
         points="49.0581,-46.6898 54.0752,-41.8083 54.0752,-41.8083 44.593,-37.0817 "
         id="polygon84"
         style="fill:#000000;stroke:#000000" />
    </g>
    <g
       style="fill:#ffff00;fill-opacity:1"
       transform="translate(4,264)"
       id="node11"
       class="node">
      <title
         id="title87">10</title>
      <polygon
         points="72,-1 72,-1 72,-37 126,-37 126,-1 "
         id="polygon89"
         style="fill:#ffff00;fill-opacity:1;stroke:#000000" />
      <text
         x="99"
         y="-15.9"
         font-size="14.00"
         id="text91"
         style="font-size:14px;text-anchor:middle;fill:#ffff00;fill-opacity:1;font-family:'Times Roman,serif'" />
    </g>
    <g
       transform="translate(4,264)"
       id="edge10"
       class="edge">
      <title
         id="title94">3-&gt;10</title>
      <path
         d="m 99,-74.7079 c 0,8.2444 0,18.1703 0,27.3457"
         id="path96"
         inkscape:connector-curvature="0"
         style="fill:none;stroke:#000000" />
      <polygon
         points="95.5001,-47.0818 102.5,-47.0817 102.5,-47.0817 99,-37.0817 "
         id="polygon98"
         style="fill:#000000;stroke:#000000" />
    </g>
    <g
       style="fill:#00ff00;fill-opacity:1"
       transform="translate(4,264)"
       id="node6"
       class="node">
      <title
         id="title101">5</title>
      <polygon
         points="144,-75 144,-75 144,-111 198,-111 198,-75 "
         id="polygon103"
         style="fill:#00ff00;fill-opacity:1;stroke:#000000" />
      <text
         x="171"
         y="-89.900002"
         font-size="14.00"
         id="text105"
         style="font-size:14px;text-anchor:middle;fill:#00ff00;fill-opacity:1;font-family:'Times Roman,serif'" />
    </g>
    <g
       transform="translate(4,264)"
       id="edge14"
       class="edge">
      <title
         id="title108">4-&gt;5</title>
      <path
         d="m 171,-148.708 c 0,8.244 0,18.17 0,27.346"
         id="path110"
         inkscape:connector-curvature="0"
         style="fill:none;stroke:#000000" />
      <polygon
         points="167.5,-121.082 174.5,-121.082 174.5,-121.082 171,-111.082 "
         id="polygon112"
         style="fill:#000000;stroke:#000000" />
    </g>
    <g
       style="fill:#00ff00;fill-opacity:1"
       transform="translate(4,264)"
       id="node7"
       class="node">
      <title
         id="title115">6</title>
      <polygon
         points="216,-75 216,-75 216,-111 270,-111 270,-75 "
         id="polygon117"
         style="fill:#00ff00;fill-opacity:1;stroke:#000000" />
      <text
         x="243"
         y="-89.900002"
         font-size="14.00"
         id="text119"
         style="font-size:14px;text-anchor:middle;fill:#00ff00;fill-opacity:1;font-family:'Times Roman,serif'" />
    </g>
    <g
       transform="translate(4,264)"
       id="edge16"
       class="edge">
      <title
         id="title122">4-&gt;6</title>
      <path
         d="m 188.798,-148.708 c 8.893,9.141 19.798,20.348 29.488,30.308"
         id="path124"
         inkscape:connector-curvature="0"
         style="fill:none;stroke:#000000" />
      <polygon
         points="215.925,-115.808 220.942,-120.69 220.942,-120.69 225.407,-111.082 "
         id="polygon126"
         style="fill:#000000;stroke:#000000" />
    </g>
    <g
       style="fill:#00ff00;fill-opacity:1"
       transform="translate(4,264)"
       id="node8"
       class="node">
      <title
         id="title129">7</title>
      <polygon
         points="144,-1 144,-1 144,-37 198,-37 198,-1 "
         id="polygon131"
         style="fill:#00ff00;fill-opacity:1;stroke:#000000" />
      <text
         x="171"
         y="-15.9"
         font-size="14.00"
         id="text133"
         style="font-size:14px;text-anchor:middle;fill:#00ff00;fill-opacity:1;font-family:'Times Roman,serif'" />
    </g>
    <g
       transform="translate(4,264)"
       id="edge18"
       class="edge">
      <title
         id="title136">5-&gt;7</title>
      <path
         d="m 171,-74.7079 c 0,8.2444 0,18.1703 0,27.3457"
         id="path138"
         inkscape:connector-curvature="0"
         style="fill:none;stroke:#000000" />
      <polygon
         points="167.5,-47.0818 174.5,-47.0817 174.5,-47.0817 171,-37.0817 "
         id="polygon140"
         style="fill:#000000;stroke:#000000" />
    </g>
    <g
       style="fill:#00ff00;fill-opacity:1"
       transform="translate(4,264)"
       id="node9"
       class="node">
      <title
         id="title143">8</title>
      <polygon
         points="216,-1 216,-1 216,-37 270,-37 270,-1 "
         id="polygon145"
         style="fill:#00ff00;fill-opacity:1;stroke:#000000" />
      <text
         x="243"
         y="-15.9"
         font-size="14.00"
         id="text147"
         style="font-size:14px;text-anchor:middle;fill:#00ff00;fill-opacity:1;font-family:'Times Roman,serif'" />
    </g>
    <g
       transform="translate(4,264)"
       id="edge20"
       class="edge">
      <title
         id="title150">6-&gt;8</title>
      <path
         d="m 243,-74.7079 c 0,8.2444 0,18.1703 0,27.3457"
         id="path152"
         inkscape:connector-curvature="0"
         style="fill:none;stroke:#000000" />
      <polygon
         points="239.5,-47.0818 246.5,-47.0817 246.5,-47.0817 243,-37.0817 "
         id="polygon154"
         style="fill:#000000;stroke:#000000" />
    </g>
  </g>
  <g
     style="font-size:22.73012161px;font-style:normal;font-weight:normal;line-height:125%;letter-spacing:0px;word-spacing:0px;fill:#ffffff;fill-opacity:1;stroke:#000000;stroke-width:3.20000005;stroke-miterlimit:4;stroke-opacity:1;font-family:Sans"
     id="text3066">
    <path
       d="m 4.2024759,327.67889 12.7856931,-1.24305 c 0.769493,4.29151 2.330707,7.44353 4.683648,9.45608 2.3529,2.01258 5.527123,3.01886 9.522678,3.01885 4.232267,10e-6 7.421288,-0.89529 9.567073,-2.68589 2.145705,-1.79057 3.218578,-3.88452 3.218621,-6.28186 -4.3e-5,-1.539 -0.45139,-2.84864 -1.354041,-3.92893 -0.902734,-1.08025 -2.478747,-2.01994 -4.728043,-2.81907 -1.539054,-0.53271 -5.046237,-1.4798 -10.52156,-2.84127 -7.043989,-1.74616 -11.986602,-3.89191 -14.827853,-6.43724 -3.9955364,-3.58114 -5.993299,-7.94662 -5.9932933,-13.09646 -5.7e-6,-3.31475 0.9396827,-6.41499 2.8190678,-9.3007 1.8793685,-2.8856 4.5874465,-5.08314 8.1242425,-6.59262 3.536763,-1.50936 7.806056,-2.26407 12.807891,-2.26414 8.1686,7e-5 14.317269,1.79066 18.446026,5.37177 4.128662,3.58124 6.296604,8.36107 6.503834,14.33951 L 42.115608,302.951 c -0.562374,-3.34435 -1.768431,-5.74907 -3.618173,-7.21415 -1.849818,-1.46497 -4.624488,-2.19748 -8.324019,-2.19754 -3.817976,6e-5 -6.807221,0.78436 -8.967744,2.35292 -1.391055,1.00634 -2.086572,2.35298 -2.086554,4.03993 -1.8e-5,1.53906 0.651105,2.85611 1.95337,3.95113 1.657383,1.39108 5.682505,2.84131 12.075377,4.35069 6.392808,1.50946 11.120846,3.07068 14.184129,4.68365 3.063189,1.61304 5.460504,3.81798 7.191952,6.61482 1.731341,2.7969 2.597038,6.25229 2.597094,10.36618 -5.6e-5,3.72917 -1.035933,7.22156 -3.107634,10.47716 -2.071806,3.25562 -5.001858,5.67514 -8.790164,7.25855 -3.788394,1.58341 -8.509033,2.37512 -14.161931,2.37512 -8.227852,0 -14.546701,-1.90158 -18.956566,-5.70473 -4.4098874,-3.80314 -7.0439744,-9.34508 -7.9022691,-16.62584 z"
       style="font-size:90.92048645px;font-weight:bold;fill:#ffffff;stroke:#000000;-inkscape-font-specification:Sans Bold"
       id="path3928" />
    <path
       d="m 77.49824,348.85519 -15.538169,-65.08273 13.451615,0 9.811243,44.70554 11.897799,-44.70554 15.626962,0 11.40945,45.46025 9.98882,-45.46025 13.22965,0 -15.80454,65.08273 -13.93996,0 -12.96327,-48.65666 -12.91888,48.65666 z"
       style="font-size:90.92048645px;font-weight:bold;fill:#ffffff;stroke:#000000;-inkscape-font-specification:Sans Bold"
       id="path3930" />
    <path
       d="m 212.7247,348.85519 -14.29512,0 -5.68253,-14.78345 -26.01533,0 -5.37177,14.78345 -13.93996,0 25.34942,-65.08273 13.89556,0 z m -24.19515,-25.74896 -8.96774,-24.15076 -8.79017,24.15076 z"
       style="font-size:90.92048645px;font-weight:bold;fill:#ffffff;stroke:#000000;-inkscape-font-specification:Sans Bold"
       id="path3932" />
    <path
       d="m 234.38934,348.85519 0,-54.07282 -19.31172,0 0,-11.00991 51.7199,0 0,11.00991 -19.26733,0 0,54.07282 z"
       style="font-size:90.92048645px;font-weight:bold;fill:#ffffff;stroke:#000000;-inkscape-font-specification:Sans Bold"
       id="path3934" />
  </g>
</svg>
